<?xml version="1.0" encoding="UTF-8"?>
<svg width="118px" height="29px" viewBox="0 0 118 29" version="1.1" xmlns="http://www.w3.org/2000/svg" xmlns:xlink="http://www.w3.org/1999/xlink">
    <!-- Generator: Sketch 52.6 (67491) - http://www.bohemiancoding.com/sketch -->
    <title>數字攻略 copy 2</title>
    <desc>Created with Sketch.</desc>
    <g id="Page-1" stroke="none" stroke-width="1" fill="none" fill-rule="evenodd">
        <path d="M18.87,7.53 C18.45,8.88 18.03,10.11 17.55,11.22 L19.2,10.74 C19.44,13.08 19.98,15.18 20.76,17.1 C21.78,14.37 22.35,11.19 22.47,7.53 L18.87,7.53 Z M19.14,20.55 C18,18.27 17.19,15.72 16.77,12.9 C16.41,13.56 16.02,14.16 15.66,14.7 L14.34,13.02 L14.34,16.89 L8.94,16.89 L8.94,17.76 L7.95,17.76 C7.83,17.97 7.71,18.18 7.65,18.36 L15.27,18.36 L15.27,20.88 L13.2,20.88 C12.75,22.08 12.06,23.1 11.16,24 C12.24,24.42 13.38,24.87 14.52,25.41 C16.38,24.12 17.94,22.5 19.14,20.55 Z M8.31,22.95 C9.21,22.35 9.84,21.66 10.26,20.88 L6.24,20.88 C5.97,21.3 5.73,21.72 5.49,22.11 C6.39,22.35 7.35,22.62 8.31,22.95 Z M14.7,25.95 L13.2,27.9 C11.73,27.06 10.26,26.34 8.79,25.68 C6.84,26.76 4.35,27.51 1.35,27.96 L0.21,25.44 C2.28,25.17 4.02,24.81 5.46,24.33 C4.29,23.85 3.12,23.46 1.95,23.13 C2.43,22.35 2.88,21.6 3.3,20.88 L0.03,20.88 L0.03,18.36 L4.68,18.36 C4.92,17.85 5.19,17.37 5.43,16.89 L0.75,16.89 L0.75,11.58 L6.12,11.58 L6.12,10.56 L1.26,10.56 L1.26,7.47 L0,7.47 L0,4.95 L1.26,4.95 L1.26,1.71 L6.12,1.71 L6.12,0.36 L8.94,0.36 L8.94,1.71 L13.83,1.71 L13.83,4.95 L15.12,4.95 L15.12,7.47 L13.83,7.47 L13.83,10.56 L8.94,10.56 L8.94,11.58 L14.19,11.58 C15.63,8.64 16.62,4.83 17.16,0.21 L20.25,0.75 C20.07,2.13 19.83,3.42 19.59,4.62 L26.88,4.62 L26.88,7.53 L25.35,7.53 C25.17,12.6 24.21,16.92 22.5,20.46 C23.82,22.5 25.53,24.27 27.6,25.74 L25.71,28.26 C23.73,26.85 22.11,25.23 20.82,23.37 C19.5,25.23 17.94,26.85 16.11,28.2 L14.7,25.95 Z M11.19,8.49 L11.19,7.17 L8.94,7.17 L8.94,8.49 L11.19,8.49 Z M8.94,5.19 L11.19,5.19 L11.19,3.87 L8.94,3.87 L8.94,5.19 Z M6.12,8.49 L6.12,7.17 L3.9,7.17 L3.9,8.49 L6.12,8.49 Z M3.9,5.19 L6.12,5.19 L6.12,3.87 L3.9,3.87 L3.9,5.19 Z M11.7,14.88 L11.7,13.56 L8.94,13.56 L8.94,14.88 L11.7,14.88 Z M6.12,14.88 L6.12,13.56 L3.39,13.56 L3.39,14.88 L6.12,14.88 Z M56.49,3.15 L56.49,10.32 L53.34,10.32 L53.34,6.12 L33.72,6.12 L33.72,10.32 L30.57,10.32 L30.57,3.15 L41.88,3.15 C41.46,2.25 41.04,1.38 40.56,0.6 L44.19,0 C44.61,0.93 45.03,1.98 45.39,3.15 L56.49,3.15 Z M35.31,8.58 L51.72,8.58 L51.72,11.46 C49.86,12.78 47.76,14.07 45.48,15.33 L45.48,16.62 L56.94,16.62 L56.94,19.62 L45.48,19.62 L45.48,24.96 C45.48,26.97 44.43,27.99 42.36,27.99 L38.67,27.99 L37.92,25.14 C38.94,25.2 40.08,25.23 41.31,25.23 C41.97,25.23 42.33,24.78 42.33,23.91 L42.33,19.62 L30.15,19.62 L30.15,16.62 L42.33,16.62 L42.33,14.07 C44.31,13.05 45.9,12.18 47.07,11.46 L35.31,11.46 L35.31,8.58 Z M64.14,5.97 L60.12,5.97 L60.12,2.91 L71.52,2.91 L71.52,5.97 L67.23,5.97 L67.23,19.08 C68.73,18.6 70.17,18.06 71.61,17.49 L71.61,20.64 C68.13,21.96 64.44,23.1 60.51,24.03 L59.76,20.85 C61.23,20.61 62.7,20.31 64.14,19.95 L64.14,5.97 Z M75.39,7.59 C74.28,10.83 72.84,13.5 71.1,15.66 L69.12,13.2 C71.52,9.99 73.14,5.67 73.98,0.27 L77.04,0.81 C76.8,2.13 76.56,3.36 76.26,4.56 L86.73,4.56 L86.73,7.59 L84.45,7.59 C84.21,12.39 82.89,16.53 80.49,19.98 C82.47,22.14 84.81,24.09 87.51,25.77 L85.44,28.17 C82.77,26.43 80.46,24.51 78.54,22.38 C76.38,24.66 73.65,26.58 70.35,28.14 L68.64,25.41 C71.94,24.03 74.61,22.26 76.65,20.04 C75.09,17.94 73.86,15.69 72.9,13.29 L75.36,11.91 C76.2,13.95 77.25,15.84 78.54,17.58 C80.31,14.76 81.3,11.43 81.54,7.59 L75.39,7.59 Z M114.93,16.38 C112.83,15.36 111,14.28 109.44,13.08 C107.76,14.31 105.84,15.42 103.68,16.38 L114.93,16.38 Z M103.11,16.62 C102.81,16.74 102.51,16.86 102.24,16.98 L101.16,15.54 L101.16,25.47 L98.52,25.47 L98.52,24.36 L93.3,24.36 L93.3,25.47 L90.48,25.47 L90.48,2.19 L101.16,2.19 L101.16,7.38 C102.87,5.64 104.37,3.33 105.63,0.42 L108.75,1.08 C108.45,1.71 108.18,2.31 107.91,2.91 L115.62,2.91 L115.62,5.31 C114.72,7.53 113.37,9.51 111.57,11.25 C113.34,12.39 115.38,13.38 117.66,14.22 L116.31,17.01 C115.95,16.86 115.59,16.71 115.29,16.53 L115.29,27.87 L112.23,27.87 L112.23,26.76 L106.17,26.76 L106.17,27.87 L103.11,27.87 L103.11,16.62 Z M101.16,8.49 L101.16,14.19 C103.44,13.29 105.45,12.24 107.13,11.07 C106.17,10.11 105.33,9.15 104.64,8.16 C104.01,8.94 103.35,9.63 102.69,10.29 L101.16,8.49 Z M109.14,9.42 C110.31,8.31 111.27,7.11 112.02,5.85 L106.26,5.85 C106.23,5.91 106.2,5.94 106.2,5.97 C106.98,7.23 107.97,8.37 109.14,9.42 Z M106.17,23.85 L112.23,23.85 L112.23,19.29 L106.17,19.29 L106.17,23.85 Z M98.52,21.66 L98.52,14.52 L97.11,14.52 L97.11,21.66 L98.52,21.66 Z M98.52,11.82 L98.52,5.04 L97.11,5.04 L97.11,11.82 L98.52,11.82 Z M94.65,5.04 L93.3,5.04 L93.3,11.82 L94.65,11.82 L94.65,5.04 Z M93.3,14.52 L93.3,21.66 L94.65,21.66 L94.65,14.52 L93.3,14.52 Z" id="數字攻略-copy-2" fill="#FD2E51"></path>
    </g>
</svg>